REM DIRINDEX 1\2,1\3,1\4,1\5
REM DIRNAME "folder01","folder02","folder03","folder04","folder05"
TITLE ""
FILE "P1Q_t_0020-0029.mp3" MP3
  TRACK 01 AUDIO
    TITLE "3:cjc173_0967"
    INDEX 01 00:00:00
  TRACK 02 AUDIO
    TITLE "0:"
    INDEX 01 00:01:27
  TRACK 03 AUDIO
    TITLE "4:cjc173_0968"
    INDEX 01 00:01:49
  TRACK 04 AUDIO
    TITLE "0:"
    INDEX 01 00:05:23
  TRACK 05 AUDIO
    TITLE "5:cjc173_0969"
    INDEX 01 00:05:43
  TRACK 06 AUDIO
    TITLE "0:"
    INDEX 01 00:09:70
  TRACK 07 AUDIO
    TITLE "3:cjc173_0970"
    INDEX 01 00:10:42
  TRACK 08 AUDIO
    TITLE "0:"
    INDEX 01 00:11:71
  TRACK 09 AUDIO
    TITLE "4:cjc173_0971"
    INDEX 01 00:12:17
  TRACK 10 AUDIO
    TITLE "0:"
    INDEX 01 00:14:67
  TRACK 11 AUDIO
    TITLE "5:cjc173_0972"
    INDEX 01 00:15:12
  TRACK 12 AUDIO
    TITLE "0:"
    INDEX 01 00:19:70
  TRACK 13 AUDIO
    TITLE "3:cjc173_0973"
    INDEX 01 00:20:42
  TRACK 14 AUDIO
    TITLE "0:"
    INDEX 01 00:21:63
  TRACK 15 AUDIO
    TITLE "4:cjc173_0974"
    INDEX 01 00:22:08
  TRACK 16 AUDIO
    TITLE "0:"
    INDEX 01 00:26:29
  TRACK 17 AUDIO
    TITLE "5:cjc173_0975"
    INDEX 01 00:26:51
  TRACK 18 AUDIO
    TITLE "0:"
    INDEX 01 00:30:54
  TRACK 19 AUDIO
    TITLE "3:cjc173_0976"
    INDEX 01 00:31:25
  TRACK 20 AUDIO
    TITLE "0:"
    INDEX 01 00:32:44
  TRACK 21 AUDIO
    TITLE "4:cjc173_0977"
    INDEX 01 00:32:63
  TRACK 22 AUDIO
    TITLE "0:"
    INDEX 01 00:34:62
  TRACK 23 AUDIO
    TITLE "5:cjc173_0978"
    INDEX 01 00:35:07
  TRACK 24 AUDIO
    TITLE "0:"
    INDEX 01 00:39:26
  TRACK 25 AUDIO
    TITLE "3:cjc173_0979"
    INDEX 01 00:39:73
  TRACK 26 AUDIO
    TITLE "0:"
    INDEX 01 00:41:13
  TRACK 27 AUDIO
    TITLE "4:cjc173_0980"
    INDEX 01 00:41:37
  TRACK 28 AUDIO
    TITLE "0:"
    INDEX 01 00:44:45
  TRACK 29 AUDIO
    TITLE "5:cjc173_0981"
    INDEX 01 00:44:64
  TRACK 30 AUDIO
    TITLE "0:"
    INDEX 01 00:50:16
  TRACK 31 AUDIO
    TITLE "3:cjc173_0982"
    INDEX 01 00:50:65
  TRACK 32 AUDIO
    TITLE "0:"
    INDEX 01 00:52:01
  TRACK 33 AUDIO
    TITLE "4:cjc173_0983"
    INDEX 01 00:52:25
  TRACK 34 AUDIO
    TITLE "0:"
    INDEX 01 00:56:44
  TRACK 35 AUDIO
    TITLE "5:cjc173_0984"
    INDEX 01 00:56:66
  TRACK 36 AUDIO
    TITLE "0:"
    INDEX 01 01:00:63
  TRACK 37 AUDIO
    TITLE "3:cjc173_0985"
    INDEX 01 01:01:35
  TRACK 38 AUDIO
    TITLE "0:"
    INDEX 01 01:02:41
  TRACK 39 AUDIO
    TITLE "4:cjc173_0986"
    INDEX 01 01:02:62
  TRACK 40 AUDIO
    TITLE "0:"
    INDEX 01 01:06:31
  TRACK 41 AUDIO
    TITLE "5:cjc173_0987"
    INDEX 01 01:06:52
  TRACK 42 AUDIO
    TITLE "0:"
    INDEX 01 01:12:02
  TRACK 43 AUDIO
    TITLE "3:cjc173_0988"
    INDEX 01 01:12:47
  TRACK 44 AUDIO
    TITLE "0:"
    INDEX 01 01:14:03
  TRACK 45 AUDIO
    TITLE "4:cjc173_0989"
    INDEX 01 01:14:24
  TRACK 46 AUDIO
    TITLE "0:"
    INDEX 01 01:17:68
  TRACK 47 AUDIO
    TITLE "5:cjc173_0990"
    INDEX 01 01:18:12
  TRACK 48 AUDIO
    TITLE "0:"
    INDEX 01 01:22:26
  TRACK 49 AUDIO
    TITLE "3:cjc173_0991"
    INDEX 01 01:22:73
  TRACK 50 AUDIO
    TITLE "0:"
    INDEX 01 01:24:15
  TRACK 51 AUDIO
    TITLE "4:cjc173_0992"
    INDEX 01 01:24:37
  TRACK 52 AUDIO
    TITLE "0:"
    INDEX 01 01:29:22
  TRACK 53 AUDIO
    TITLE "5:cjc173_0993"
    INDEX 01 01:29:45
  TRACK 54 AUDIO
    TITLE "0:"
    INDEX 01 01:34:07
  TRACK 55 AUDIO
    TITLE "3:cjc173_0994"
    INDEX 01 01:34:54
  TRACK 56 AUDIO
    TITLE "0:"
    INDEX 01 01:36:01
  TRACK 57 AUDIO
    TITLE "4:cjc173_0995"
    INDEX 01 01:36:22
  TRACK 58 AUDIO
    TITLE "0:"
    INDEX 01 01:40:39
  TRACK 59 AUDIO
    TITLE "5:cjc173_0996"
    INDEX 01 01:40:59
  TRACK 60 AUDIO
    TITLE "0:"
    INDEX 01 01:47:39
